HIERARCHY
ROOT joint_Root
{
	OFFSET 0.0 0.0 0.0
	CHANNELS 6 Xposition Yposition Zposition Zrotation Xrotation Yrotation 
	JOINT Hips
	{
		OFFSET 4.5925 91.4895 -427.239
		CHANNELS 6 Xposition Yposition Zposition Zrotation Xrotation Yrotation 
		JOINT Spine
		{
			OFFSET 15.7357 0.0 0.0
			CHANNELS 6 Xposition Yposition Zposition Zrotation Xrotation Yrotation 
			JOINT Chest
			{
				OFFSET 8.98455 -0.406207 0.0
				CHANNELS 6 Xposition Yposition Zposition Zrotation Xrotation Yrotation 
				JOINT Neck
				{
					OFFSET 16.3773 0.0 0.0
					CHANNELS 6 Xposition Yposition Zposition Zrotation Xrotation Yrotation 
					JOINT Head
					{
						OFFSET 6.45672 0.0 0.0
						CHANNELS 6 Xposition Yposition Zposition Zrotation Xrotation Yrotation 
						End Site
						{
							OFFSET 0.0 0.0 0.0
						}
					}
				}
				JOINT Shoulder_L
				{
					OFFSET 12.9942 -0.242716 4.98039
					CHANNELS 6 Xposition Yposition Zposition Zrotation Xrotation Yrotation 
					JOINT UpperArm_L
					{
						OFFSET 5.34809 0.0 0.0
						CHANNELS 6 Xposition Yposition Zposition Zrotation Xrotation Yrotation 
						JOINT LowerArm_L
						{
							OFFSET 24.3286 1.87007e-05 0.0
							CHANNELS 6 Xposition Yposition Zposition Zrotation Xrotation Yrotation 
							JOINT Hand_L
							{
								OFFSET 22.2916 0.0 0.0
								CHANNELS 6 Xposition Yposition Zposition Zrotation Xrotation Yrotation 
								End Site
								{
									OFFSET 0.0 0.0 0.0
								}
							}
						}
					}
				}
				JOINT Shoulder_R
				{
					OFFSET 12.9945 -0.242716 -4.98039
					CHANNELS 6 Xposition Yposition Zposition Zrotation Xrotation Yrotation 
					JOINT UpperArm_R
					{
						OFFSET -5.34813 0.0 0.0
						CHANNELS 6 Xposition Yposition Zposition Zrotation Xrotation Yrotation 
						JOINT LowerArm_R
						{
							OFFSET -24.3289 0.000322201 0.0
							CHANNELS 6 Xposition Yposition Zposition Zrotation Xrotation Yrotation 
							JOINT Hand_R
							{
								OFFSET -22.2915 -0.000108084 0.0
								CHANNELS 6 Xposition Yposition Zposition Zrotation Xrotation Yrotation 
								End Site
								{
									OFFSET 0.0 0.0 0.0
								}
							}
						}
					}
				}
			}
		}
		JOINT UpperLeg_L
		{
			OFFSET -2.19248 -6.46944 0.0
			CHANNELS 6 Xposition Yposition Zposition Zrotation Xrotation Yrotation 
			JOINT LowerLeg_L
			{
				OFFSET 39.0811 0.0 -1.23785e-05
				CHANNELS 6 Xposition Yposition Zposition Zrotation Xrotation Yrotation 
				JOINT Foot_L
				{
					OFFSET 40.9854 0.0 -1.26872e-05
					CHANNELS 6 Xposition Yposition Zposition Zrotation Xrotation Yrotation 
					JOINT Toes_L
					{
						OFFSET 11.7543 0.0 0.0
						CHANNELS 6 Xposition Yposition Zposition Zrotation Xrotation Yrotation 
						End Site
						{
							OFFSET 0.0 0.0 0.0
						}
					}
				}
			}
		}
		JOINT UpperLeg_R
		{
			OFFSET -2.19251 6.46944 0.0
			CHANNELS 6 Xposition Yposition Zposition Zrotation Xrotation Yrotation 
			JOINT LowerLeg_R
			{
				OFFSET -39.0811 -0.00228153 -0.0401928
				CHANNELS 6 Xposition Yposition Zposition Zrotation Xrotation Yrotation 
				JOINT Foot_R
				{
					OFFSET -40.9854 0.0 0.0
					CHANNELS 6 Xposition Yposition Zposition Zrotation Xrotation Yrotation 
					JOINT Toes_R
					{
						OFFSET -11.7543 0.0 0.0
						CHANNELS 6 Xposition Yposition Zposition Zrotation Xrotation Yrotation 
						End Site
						{
							OFFSET 0.0 0.0 0.0
						}
					}
				}
			}
		}
	}
}
MOTION
Frames:	4
Frame Time:	0.0333333
0.000000 0.000000 0.000000 0.000000 0.000000 -0.000000 -1.543420 90.334900 3.273800 89.586900 -2.750690 10.785600 15.735700 0.000005 -0.000001 86.736500 81.463300 -86.986400 8.984550 -0.406207 -0.000000 9.278640 -0.969876 -0.420712 16.377300 -0.000001 -0.000001 2.450080 -3.353080 2.061600 6.456720 -0.000001 -0.000000 -9.171610 -2.212950 3.768910 12.994200 -0.242716 4.980390 -91.884800 7.166280 -75.222700 5.348090 -0.000007 -0.000001 -59.420400 41.317100 -18.304800 24.328600 0.000019 0.000005 8.119830 22.536600 -20.417800 22.291600 -0.000001 0.000005 11.027700 5.250270 1.425580 12.994500 -0.242716 -4.980390 88.490500 12.025300 -82.791500 -5.348130 -0.000001 -0.000004 -62.626400 30.007100 -11.549800 -24.328900 0.000322 -0.000009 1.100720 3.501820 -17.477200 -22.291500 -0.000108 -0.000004 14.114800 5.382870 -2.389290 -2.192480 -6.469440 -0.000000 -173.367000 -12.969300 3.764650 39.081100 -0.000007 -0.000012 -0.253100 0.426086 30.711200 40.985400 -0.000006 -0.000013 -0.249451 5.897010 -73.146700 11.754300 -0.000000 0.000003 -0.000246 -0.002203 -16.660100 -2.192510 6.469440 -0.000001 172.554000 22.131600 -175.314000 -39.081100 -0.002282 -0.040193 -0.250889 0.430750 30.545700 -40.985400 0.000008 0.000006 2.932600 12.362400 -73.407100 -11.754300 -0.000006 -0.000006 -0.002167 -0.030789 -17.825100
0.000000 0.000000 0.000000 0.000000 0.000000 -0.000000 -1.500110 90.331800 3.300320 89.558800 -2.806960 10.837800 15.735700 0.000005 -0.000001 86.897100 81.442900 -87.228000 8.984550 -0.406207 -0.000000 9.321350 -0.925700 -0.585849 16.377300 -0.000001 -0.000001 2.793750 -3.358810 1.958640 6.456720 -0.000001 -0.000000 -8.718640 -2.169850 3.400560 12.994200 -0.242716 4.980390 -91.897400 7.156370 -75.108800 5.348090 -0.000007 -0.000001 -59.296100 41.015700 -18.295800 24.328600 0.000019 0.000005 8.137580 22.740200 -20.299900 22.291600 -0.000001 0.000005 10.998300 5.248990 1.459500 12.994500 -0.242716 -4.980390 88.422100 12.000600 -82.453300 -5.348130 -0.000001 -0.000004 -62.811400 28.374600 -11.469800 -24.328900 0.000322 -0.000009 1.022840 3.151190 -18.011100 -22.291500 -0.000108 -0.000004 14.537700 5.391440 -2.661200 -2.192480 -6.469440 -0.000000 -173.360000 -12.959400 3.840010 39.081100 -0.000007 -0.000012 -0.252447 0.424777 30.723600 40.985400 -0.000006 -0.000013 -0.240010 5.828510 -73.184300 11.754300 -0.000000 0.000003 -0.000239 -0.002153 -16.658300 -2.192510 6.469440 -0.000001 172.540000 22.061900 -175.237000 -39.081100 -0.002282 -0.040193 -0.250342 0.430164 30.525700 -40.985400 0.000008 0.000006 2.898070 12.368500 -73.402100 -11.754300 -0.000006 -0.000006 -0.002051 -0.029357 -17.766800
0.000000 0.000000 0.000000 0.000000 0.000000 -0.000000 -1.448130 90.324800 3.325350 89.544000 -2.826600 10.832800 15.735700 0.000005 -0.000001 86.869300 81.435600 -87.273400 8.984550 -0.406207 -0.000000 9.334870 -0.935767 -0.731211 16.377300 -0.000001 -0.000001 3.183970 -3.331320 1.786180 6.456720 -0.000001 -0.000000 -8.278020 -2.099550 2.965080 12.994200 -0.242716 4.980390 -91.909100 7.134730 -74.977900 5.348090 -0.000007 -0.000001 -59.221000 40.791700 -18.313600 24.328600 0.000019 0.000005 8.107210 22.788600 -20.191900 22.291600 -0.000001 0.000005 11.017900 5.246730 1.519290 12.994500 -0.242716 -4.980390 88.329300 12.040600 -82.040400 -5.348130 -0.000001 -0.000004 -62.960900 25.532600 -11.336800 -24.328900 0.000322 -0.000009 0.815353 2.332460 -19.303700 -22.291500 -0.000108 -0.000004 14.961000 5.393160 -2.715950 -2.192480 -6.469440 -0.000000 -173.392000 -12.929600 3.833180 39.081100 -0.000007 -0.000012 -0.253577 0.426067 30.759700 40.985400 -0.000006 -0.000013 -0.217351 5.771560 -73.228100 11.754300 -0.000000 0.000003 -0.000239 -0.002152 -16.658300 -2.192510 6.469440 -0.000001 172.523000 22.046000 -175.246000 -39.081100 -0.002282 -0.040193 -0.250001 0.429228 30.546700 -40.985400 0.000008 0.000006 2.864950 12.375200 -73.406900 -11.754300 -0.000006 -0.000006 -0.002062 -0.029487 -17.772100
0.000000 0.000000 0.000000 0.000000 0.000000 -0.000000 -1.379860 90.321100 3.326280 89.549400 -2.921120 10.809100 15.735700 0.000005 -0.000001 86.757400 81.440800 -87.232600 8.984550 -0.406207 -0.000000 9.322100 -0.969342 -0.870707 16.377300 -0.000001 -0.000001 3.646900 -3.268550 1.549820 6.456720 -0.000001 -0.000000 -7.893510 -1.949050 2.450530 12.994200 -0.242716 4.980390 -91.925100 7.121930 -74.831400 5.348090 -0.000007 -0.000001 -59.225400 40.628400 -18.153900 24.328600 0.000019 0.000005 8.097270 22.653300 -20.273600 22.291600 -0.000001 0.000005 11.051700 5.247740 1.492380 12.994500 -0.242716 -4.980390 88.229400 12.114900 -81.621100 -5.348130 -0.000001 -0.000004 -63.071300 21.591600 -11.347500 -24.328900 0.000322 -0.000009 0.342598 0.891139 -21.115600 -22.291500 -0.000108 -0.000004 15.682600 5.397020 -2.840270 -2.192480 -6.469440 -0.000000 -173.448000 -12.994100 3.814290 39.081100 -0.000007 -0.000012 -0.252198 0.423405 30.780200 40.985400 -0.000006 -0.000013 -0.176467 5.718520 -73.258300 11.754300 -0.000000 0.000003 -0.000237 -0.002133 -16.657600 -2.192510 6.469440 -0.000001 172.547000 21.819900 -175.325000 -39.081100 -0.002282 -0.040193 -0.250949 0.430332 30.576000 -40.985400 0.000008 0.000006 2.780490 12.265600 -73.389300 -11.754300 -0.000006 -0.000006 -0.002112 -0.030106 -17.797300
